# xmcd
#
# Track frame offsets: 
#        150
#        20697
#        37360
#        52947
#        63315
#        79942
#        92550
#        104027
#        118050
#        131845
#        146407
#        158020
#        167755
#
# Disc length: 2385 seconds
#
# Revision: 1
# Processed by: cddbd v1.4PL0 Copyright (c) Steve Scherf et al.
# Submitted via: ExactAudioCopy v0.95a3
#
DISCID=b6094f0d
DTITLE=Jim and Jesse - Jim and Jesse Honor the King of Country Music 
DYEAR=1900
DGENRE=
TTITLE0=Wabash Cannonball
TTITLE1=The Precious Jewell
TTITLE2=Write me Sweetheart
TTITLE3=That Glory Bound Train
TTITLE4=Blues in my Mind
TTITLE5=Pins and Needles
TTITLE6=Night Train to Memphis
TTITLE7=Great Speckled Bird
TTITLE8=Branded Wherever
TTITLE9=I Called and Nobody Answered
TTITLE10=Fire ball mail
TTITLE11=I'll Reap my Harvest in Heaven
TTITLE12=Roll on Buddy
EXTD=
EXTT0=
EXTT1=
EXTT2=
EXTT3=
EXTT4=
EXTT5=
EXTT6=
EXTT7=
EXTT8=
EXTT9=
EXTT10=
EXTT11=
EXTT12=
PLAYORDER=
